<?xml version="1.0" ?><svg enable-background="new 0 0 30 30" height="512" id="Layer_1" version="1.1" viewBox="0 0 512 512" width="512" xml:space="preserve" xmlns="http://www.w3.org/2000/svg" xmlns:cc="http://creativecommons.org/ns#" xmlns:dc="http://purl.org/dc/elements/1.1/" xmlns:inkscape="http://www.inkscape.org/namespaces/inkscape" xmlns:rdf="http://www.w3.org/1999/02/22-rdf-syntax-ns#" xmlns:sodipodi="http://sodipodi.sourceforge.net/DTD/sodipodi-0.dtd" xmlns:svg="http://www.w3.org/2000/svg"><defs id="defs15"/><path d="M 426.66667,0 H 85.33333 C 38.20373,0 0,38.21227 0,85.33333 V 426.66667 C 0,473.79627 38.20373,512 85.33333,512 H 426.66667 C 473.79627,512 512,473.79627 512,426.66667 V 85.33333 C 512,38.21227 473.79627,0 426.66667,0 z m -18.048,268.9536 -9.23307,2.67947 c -22.84373,6.6304 -49.22027,9.99253 -78.40427,9.99253 -6.20373,0 -12.04053,-0.16213 -17.408,-0.40107 26.9312,30.66027 68.4288,84.34347 76.98774,132.48854 l 1.77493,10.00106 -9.344,4.0192 c -16.49493,7.0656 -45.0048,14.60054 -46.22507,14.91627 l -11.81013,3.08907 -3.66933,-11.65654 c -0.22187,-0.7168 -22.1952,-69.13706 -69.46987,-95.40266 -18.7648,19.70346 -74.19733,71.0656 -145.00693,74.99946 l -9.94987,0.54614 -2.97813,-9.51467 C 76.34773,380.62933 69.4784,354.73067 69.41013,354.46613 l -3.65226,-13.90933 14.22506,-2.048 c 3.7888,-0.54613 92.75734,-14.26773 111.90614,-92.6976 3.3792,-28.17707 29.9008,-67.11467 47.65866,-71.2192 -9.14773,-11.46027 -14.6688,-25.97547 -14.6688,-41.77067 0,-36.95786 30.06294,-67.0208 67.0208,-67.0208 36.94934,0 67.0208,30.07147 67.0208,67.0208 0,35.80587 -28.24533,65.05814 -63.60746,66.85867 14.89066,4.84693 33.77493,8.55893 57.23306,8.55893 10.6752,0 21.87094,-0.75946 33.3056,-2.2784 l 12.20267,-1.60426 2.09067,12.11733 c 1.7664,10.19733 3.70346,18.10773 5.248,24.45653 1.87733,7.64587 3.2256,13.17547 3.2256,18.38934 v 9.63413 z" id="path5"/></svg>